<svg width="48" height="48" viewBox="0 0 48 48" fill="none" xmlns="http://www.w3.org/2000/svg">
<path d="M19.2201 20.2C23.9698 20.2 27.8201 16.3496 27.8201 11.6C27.8201 6.85035 23.9698 3 19.2201 3C14.4705 3 10.6201 6.85035 10.6201 11.6C10.6201 16.3496 14.4705 20.2 19.2201 20.2Z" stroke="#3772FF" stroke-width="2" stroke-miterlimit="10"/>
<path d="M3 39.28L4.4 32.34C5.08421 28.9126 6.93466 25.8281 9.63657 23.6111C12.3385 21.3942 15.725 20.1817 19.22 20.18C22.5451 20.1701 25.7775 21.2757 28.4 23.32" stroke="#3772FF" stroke-width="2" stroke-miterlimit="10"/>
<path d="M33.5401 45C39.8693 45 45.0001 39.8692 45.0001 33.54C45.0001 27.2108 39.8693 22.08 33.5401 22.08C27.2109 22.08 22.0801 27.2108 22.0801 33.54C22.0801 39.8692 27.2109 45 33.5401 45Z" stroke="#3772FF" stroke-width="2" stroke-miterlimit="10"/>
<path d="M27.8198 33.54H39.2798" stroke="#3772FF" stroke-width="2" stroke-miterlimit="10"/>
<path d="M33.54 27.82V39.28" stroke="#3772FF" stroke-width="2" stroke-miterlimit="10"/>
</svg>
