<svg width="48" height="48" viewBox="0 0 48 48" fill="none" xmlns="http://www.w3.org/2000/svg">
<g clip-path="url(#clip0_126_73959)">
<path d="M31.0835 16.1458H36.5835M36.5835 16.1458H42.0835M36.5835 16.1458V21.5208M36.5835 16.1458V10.7708" stroke="#007AFF" stroke-width="1.5" stroke-linecap="round"/>
<path d="M9.0835 16.1458C9.0835 12.7674 9.0835 11.0782 10.1574 10.0287C11.2314 8.97916 12.9599 8.97916 16.4168 8.97916C19.8738 8.97916 21.6023 8.97916 22.6762 10.0287C23.7502 11.0782 23.7502 12.7674 23.7502 16.1458C23.7502 19.5242 23.7502 21.2134 22.6762 22.263C21.6023 23.3125 19.8738 23.3125 16.4168 23.3125C12.9599 23.3125 11.2314 23.3125 10.1574 22.263C9.0835 21.2134 9.0835 19.5242 9.0835 16.1458Z" stroke="#007AFF" stroke-width="1.5"/>
<path d="M29.25 35.8542C29.25 32.4758 29.25 30.7866 30.3239 29.737C31.3979 28.6875 33.1264 28.6875 36.5833 28.6875C40.0403 28.6875 41.7688 28.6875 42.8427 29.737C43.9167 30.7866 43.9167 32.4758 43.9167 35.8542C43.9167 39.2326 43.9167 40.9218 42.8427 41.9713C41.7688 43.0208 40.0403 43.0208 36.5833 43.0208C33.1264 43.0208 31.3979 43.0208 30.3239 41.9713C29.25 40.9218 29.25 39.2326 29.25 35.8542Z" stroke="#007AFF" stroke-width="1.5"/>
<path d="M9.0835 35.8542C9.0835 32.4758 9.0835 30.7866 10.1574 29.737C11.2314 28.6875 12.9599 28.6875 16.4168 28.6875C19.8738 28.6875 21.6023 28.6875 22.6762 29.737C23.7502 30.7866 23.7502 32.4758 23.7502 35.8542C23.7502 39.2326 23.7502 40.9218 22.6762 41.9713C21.6023 43.0208 19.8738 43.0208 16.4168 43.0208C12.9599 43.0208 11.2314 43.0208 10.1574 41.9713C9.0835 40.9218 9.0835 39.2326 9.0835 35.8542Z" stroke="#007AFF" stroke-width="1.5"/>
</g>
<defs>
<clipPath id="clip0_126_73959">
<rect width="48" height="48" fill="white"/>
</clipPath>
</defs>
</svg>
