<svg width="56" height="55" viewBox="0 0 56 55" fill="none" xmlns="http://www.w3.org/2000/svg">
<g clip-path="url(#clip0_127_74259)">
<path d="M55.5354 27.4647C55.5354 12.3356 43.2706 0.0708008 28.1415 0.0708008C13.0124 0.0708008 0.747559 12.3356 0.747559 27.4647C0.747559 40.3114 9.59251 51.0915 21.5242 54.0522V35.8363H15.8756V27.4647H21.5242V23.8575C21.5242 14.5337 25.744 10.212 34.8979 10.212C36.6336 10.212 39.6283 10.5528 40.8534 10.8925V18.4806C40.2069 18.4127 39.0837 18.3787 37.6888 18.3787C33.1973 18.3787 31.4616 20.0804 31.4616 24.504V27.4647H40.4096L38.8723 35.8363H31.4616V54.6582C45.026 53.02 55.5365 41.4707 55.5365 27.4647H55.5354Z" fill="#0866FF"/>
<path d="M38.8712 35.8362L40.4085 27.4646H31.4606V24.5039C31.4606 20.0803 33.1962 18.3786 37.6878 18.3786C39.0827 18.3786 40.2058 18.4126 40.8523 18.4805V10.8924C39.6272 10.5516 36.6325 10.2119 34.8969 10.2119C25.7429 10.2119 21.5231 14.5336 21.5231 23.8574V27.4646H15.8745V35.8362H21.5231V54.0521C23.6423 54.578 25.8591 54.8586 28.1404 54.8586C29.2636 54.8586 30.3714 54.7895 31.4595 54.658V35.8362H38.8701H38.8712Z" fill="white"/>
</g>
<defs>
<clipPath id="clip0_127_74259">
<rect width="54.7879" height="54.7879" fill="white" transform="translate(0.747559 0.0708008)"/>
</clipPath>
</defs>
</svg>
