<svg width="66" height="63" viewBox="0 0 66 63" fill="none" xmlns="http://www.w3.org/2000/svg">
<path fill-rule="evenodd" clip-rule="evenodd" d="M35.6893 5.6079C34.7505 5.52513 33.8001 5.47961 32.8398 5.47961C31.8794 5.47961 30.929 5.5243 29.991 5.6079L29.9869 5.45643C29.9869 4.66677 30.3064 3.95161 30.8225 3.43344C31.3386 2.91611 32.0528 2.59578 32.8398 2.59578C33.6267 2.59578 34.3409 2.91611 34.857 3.43344C35.3731 3.95078 35.6926 4.66677 35.6926 5.45643L35.6885 5.6079H35.6893ZM1.69768 39.4647H33.8158C33.6696 40.6335 33.8537 41.8362 34.4227 42.87H1.69768C0.763792 42.87 0 42.1044 0 41.1682C0 40.2312 0.763792 39.4656 1.69768 39.4656V39.4647ZM3.22527 37.5833H34.3583C35.0609 36.0768 36.3623 34.87 38.1079 34.5389L33.5879 26.6928C32.6168 25.0059 32.5582 23.0276 33.5565 21.339C35.6414 17.812 40.7716 17.5621 42.9193 21.2918L44.3098 23.7063C45.2602 23.3554 46.3064 23.2743 47.3097 23.4977C48.7407 22.425 50.6464 22.108 52.3532 22.6832C54.5314 21.5128 57.3719 21.7165 59.2042 23.5938L59.2537 23.6442L59.3008 23.6972C62.0026 26.7723 63.4187 30.108 64.6127 33.5431C62.8547 19.5122 52.0642 8.29804 38.2614 5.93817L38.2829 5.4556C38.2829 3.9483 37.6735 2.58419 36.6884 1.59753C35.7042 0.610041 34.3426 0 32.8398 0C31.3369 0 29.9762 0.610041 28.9911 1.59753C28.0068 2.58502 27.3974 3.94912 27.3974 5.4556L27.4181 5.93817C13.1158 8.38413 2.04614 20.3358 0.911596 35.0786C0.806729 36.4377 1.86448 37.5841 3.22527 37.5841V37.5833Z" fill="#54BD95"/>
<path fill-rule="evenodd" clip-rule="evenodd" d="M53.647 52.4294L65.7389 45.4309C65.9783 45.2927 66.0683 44.9914 65.9445 44.7439C62.5252 37.9184 62.1519 31.0399 57.2736 25.4875C55.9871 24.1689 53.6676 24.5083 52.5942 25.9593C51.193 24.4925 48.7364 24.9925 48.0164 26.8905C46.6391 25.4196 44.1751 26.0437 43.6599 27.993L40.58 22.6459C38.8154 19.5816 34.1633 22.2734 35.9278 25.3385L43.0101 37.6345C43.1273 37.8373 42.9407 38.0798 42.7153 38.0194L39.9929 37.2885C36.3894 36.3209 34.9196 41.8178 38.5231 42.7871C45.6697 44.9185 50.4754 48.0706 52.9377 52.2432C53.083 52.489 53.4001 52.5726 53.647 52.4294Z" fill="#54BD95"/>
<path d="M61.3406 62.15V57.077H62.4711V58.4735L62.3381 58.065C62.4901 57.723 62.7276 57.4634 63.0506 57.286C63.3799 57.1087 63.7884 57.02 64.2761 57.02V58.1505C64.2254 58.1379 64.1779 58.1315 64.1336 58.1315C64.0892 58.1252 64.0449 58.122 64.0006 58.122C63.5509 58.122 63.1931 58.255 62.9271 58.521C62.6611 58.7807 62.5281 59.1702 62.5281 59.6895V62.15H61.3406Z" fill="#54BD95"/>
<path d="M57.8154 62.2165C57.2518 62.2165 56.7578 62.1057 56.3334 61.884C55.9154 61.656 55.5893 61.3457 55.3549 60.953C55.1269 60.5603 55.0129 60.1138 55.0129 59.6135C55.0129 59.1068 55.1238 58.6603 55.3454 58.274C55.5734 57.8814 55.8838 57.5742 56.2764 57.3525C56.6754 57.1309 57.1283 57.02 57.6349 57.02C58.1289 57.02 58.5691 57.1277 58.9554 57.343C59.3418 57.5584 59.6458 57.8624 59.8674 58.255C60.0891 58.6477 60.1999 59.11 60.1999 59.642C60.1999 59.6927 60.1968 59.7497 60.1904 59.813C60.1904 59.8763 60.1873 59.9365 60.1809 59.9935H55.9534V59.205H59.5539L59.0884 59.452C59.0948 59.1607 59.0346 58.9042 58.9079 58.6825C58.7813 58.4609 58.6071 58.2867 58.3854 58.16C58.1701 58.0334 57.9199 57.97 57.6349 57.97C57.3436 57.97 57.0871 58.0334 56.8654 58.16C56.6501 58.2867 56.4791 58.464 56.3524 58.692C56.2321 58.9137 56.1719 59.1765 56.1719 59.4805V59.6705C56.1719 59.9745 56.2416 60.2437 56.3809 60.478C56.5203 60.7123 56.7166 60.8928 56.9699 61.0195C57.2233 61.1462 57.5146 61.2095 57.8439 61.2095C58.1289 61.2095 58.3854 61.1652 58.6134 61.0765C58.8414 60.9878 59.0441 60.8485 59.2214 60.6585L59.8579 61.39C59.6299 61.656 59.3418 61.8618 58.9934 62.0075C58.6514 62.1468 58.2588 62.2165 57.8154 62.2165Z" fill="#54BD95"/>
<path d="M53.481 62.2165C52.9236 62.2165 52.493 62.074 52.189 61.789C51.885 61.4977 51.733 61.0702 51.733 60.5065V55.9561H52.9205V60.478C52.9205 60.7187 52.9806 60.9055 53.101 61.0385C53.2276 61.1715 53.4018 61.238 53.6235 61.238C53.8895 61.238 54.1111 61.1684 54.2885 61.029L54.621 61.8745C54.4816 61.9885 54.3106 62.074 54.108 62.131C53.9053 62.188 53.6963 62.2165 53.481 62.2165ZM50.897 58.0651V57.1151H54.279V58.0651H50.897Z" fill="#54BD95"/>
<path d="M48.2498 62.2165C47.8254 62.2165 47.4169 62.1627 47.0243 62.055C46.6379 61.941 46.3308 61.8048 46.1028 61.6465L46.5588 60.744C46.7868 60.8897 47.0591 61.01 47.3758 61.105C47.6924 61.2 48.0091 61.2475 48.3258 61.2475C48.6994 61.2475 48.9686 61.1968 49.1333 61.0955C49.3043 60.9942 49.3898 60.858 49.3898 60.687C49.3898 60.5477 49.3328 60.4432 49.2188 60.3735C49.1048 60.2975 48.9559 60.2405 48.7723 60.2025C48.5886 60.1645 48.3828 60.1297 48.1548 60.098C47.9331 60.0663 47.7083 60.0252 47.4803 59.9745C47.2586 59.9175 47.0559 59.8383 46.8723 59.737C46.6886 59.6293 46.5398 59.4868 46.4258 59.3095C46.3118 59.1322 46.2548 58.8978 46.2548 58.6065C46.2548 58.2835 46.3466 58.0049 46.5303 57.7705C46.7139 57.5299 46.9704 57.3462 47.2998 57.2195C47.6354 57.0865 48.0313 57.02 48.4873 57.02C48.8293 57.02 49.1744 57.058 49.5228 57.134C49.8711 57.21 50.1593 57.3177 50.3873 57.457L49.9313 58.3595C49.6906 58.2139 49.4468 58.1157 49.1998 58.065C48.9591 58.008 48.7184 57.9795 48.4778 57.9795C48.1168 57.9795 47.8476 58.0334 47.6703 58.141C47.4993 58.2487 47.4138 58.3849 47.4138 58.5495C47.4138 58.7015 47.4708 58.8155 47.5848 58.8915C47.6988 58.9675 47.8476 59.0277 48.0313 59.072C48.2149 59.1163 48.4176 59.1543 48.6393 59.186C48.8673 59.2113 49.0921 59.2525 49.3138 59.3095C49.5354 59.3665 49.7381 59.4457 49.9218 59.547C50.1118 59.642 50.2638 59.7782 50.3778 59.9555C50.4918 60.1328 50.5488 60.364 50.5488 60.649C50.5488 60.9657 50.4538 61.2412 50.2638 61.4755C50.0801 61.7098 49.8173 61.8935 49.4753 62.0265C49.1333 62.1532 48.7248 62.2165 48.2498 62.2165Z" fill="#54BD95"/>
<path d="M44.0373 62.15V61.124L43.9708 60.9055V59.11C43.9708 58.7617 43.8663 58.4925 43.6573 58.3025C43.4483 58.1062 43.1316 58.008 42.7073 58.008C42.4223 58.008 42.1404 58.0524 41.8618 58.141C41.5894 58.2297 41.3583 58.3532 41.1683 58.5115L40.7028 57.647C40.9751 57.438 41.2981 57.2829 41.6718 57.1815C42.0518 57.0739 42.4444 57.02 42.8498 57.02C43.5844 57.02 44.1513 57.1974 44.5503 57.552C44.9556 57.9004 45.1583 58.4419 45.1583 59.1765V62.15H44.0373ZM42.4413 62.2165C42.0613 62.2165 41.7288 62.1532 41.4438 62.0265C41.1588 61.8935 40.9371 61.713 40.7788 61.485C40.6268 61.2507 40.5508 60.9878 40.5508 60.6965C40.5508 60.4115 40.6173 60.155 40.7503 59.927C40.8896 59.699 41.1144 59.5185 41.4248 59.3855C41.7351 59.2525 42.1468 59.186 42.6598 59.186H44.1323V59.9745H42.7453C42.3399 59.9745 42.0676 60.041 41.9283 60.174C41.7889 60.3007 41.7193 60.459 41.7193 60.649C41.7193 60.8643 41.8048 61.0353 41.9758 61.162C42.1468 61.2887 42.3843 61.352 42.6883 61.352C42.9796 61.352 43.2393 61.2855 43.4673 61.1525C43.7016 61.0195 43.8694 60.8232 43.9708 60.5635L44.1703 61.276C44.0563 61.5737 43.8504 61.8048 43.5528 61.9695C43.2614 62.1342 42.8909 62.2165 42.4413 62.2165Z" fill="#54BD95"/>
<path d="M31.9526 62.15V55.5H32.9691L35.8761 60.3545H35.3441L38.2036 55.5H39.2201L39.2296 62.15H38.0611L38.0516 57.3335H38.2986L35.8666 61.39H35.3156L32.8456 57.3335H33.1306V62.15H31.9526Z" fill="#54BD95"/>
<path d="M27.5192 62.2164C27.0886 62.2164 26.7086 62.1372 26.3792 61.9789C26.0499 61.8142 25.7934 61.5672 25.6097 61.2379C25.4261 60.9022 25.3342 60.4811 25.3342 59.9744V57.0769H26.5217V59.8129C26.5217 60.2689 26.6231 60.6109 26.8257 60.8389C27.0347 61.0606 27.3292 61.1714 27.7092 61.1714C27.9879 61.1714 28.2286 61.1144 28.4312 61.0004C28.6402 60.8864 28.8017 60.7154 28.9157 60.4874C29.0361 60.2594 29.0962 59.9776 29.0962 59.6419V57.0769H30.2837V62.1499H29.1532V60.7819L29.3527 61.1999C29.1817 61.5292 28.9316 61.7826 28.6022 61.9599C28.2729 62.1309 27.9119 62.2164 27.5192 62.2164Z" fill="#54BD95"/>
<path d="M21.7474 57.02C22.1527 57.02 22.5137 57.0992 22.8304 57.2575C23.1534 57.4159 23.4067 57.6597 23.5904 57.989C23.7741 58.312 23.8659 58.73 23.8659 59.243V62.15H22.6784V59.395C22.6784 58.9453 22.5707 58.6097 22.3554 58.388C22.1464 58.1664 21.8519 58.0555 21.4719 58.0555C21.1932 58.0555 20.9462 58.1125 20.7309 58.2265C20.5156 58.3405 20.3477 58.5115 20.2274 58.7395C20.1134 58.9612 20.0564 59.243 20.0564 59.585V62.15H18.8689V57.077H19.9994V58.445L19.7999 58.027C19.9772 57.704 20.2337 57.457 20.5694 57.286C20.9114 57.1087 21.3041 57.02 21.7474 57.02Z" fill="#54BD95"/>
<path d="M15.3438 62.2165C14.7801 62.2165 14.2861 62.1057 13.8618 61.884C13.4438 61.656 13.1176 61.3457 12.8833 60.953C12.6553 60.5603 12.5413 60.1138 12.5413 59.6135C12.5413 59.1068 12.6521 58.6603 12.8738 58.274C13.1018 57.8814 13.4121 57.5742 13.8048 57.3525C14.2038 57.1309 14.6566 57.02 15.1633 57.02C15.6573 57.02 16.0974 57.1277 16.4838 57.343C16.8701 57.5584 17.1741 57.8624 17.3958 58.255C17.6174 58.6477 17.7283 59.11 17.7283 59.642C17.7283 59.6927 17.7251 59.7497 17.7188 59.813C17.7188 59.8763 17.7156 59.9365 17.7092 59.9935H13.4818V59.205H17.0823L16.6168 59.452C16.6231 59.1607 16.5629 58.9042 16.4363 58.6825C16.3096 58.4609 16.1354 58.2867 15.9138 58.16C15.6984 58.0334 15.4483 57.97 15.1633 57.97C14.8719 57.97 14.6154 58.0334 14.3938 58.16C14.1784 58.2867 14.0074 58.464 13.8808 58.692C13.7604 58.9137 13.7003 59.1765 13.7003 59.4805V59.6705C13.7003 59.9745 13.7699 60.2437 13.9093 60.478C14.0486 60.7123 14.2449 60.8928 14.4983 61.0195C14.7516 61.1462 15.0429 61.2095 15.3723 61.2095C15.6573 61.2095 15.9138 61.1652 16.1418 61.0765C16.3698 60.9878 16.5724 60.8485 16.7498 60.6585L17.3863 61.39C17.1583 61.656 16.8701 61.8618 16.5218 62.0075C16.1798 62.1468 15.7871 62.2165 15.3438 62.2165Z" fill="#54BD95"/>
<path d="M4 62.15V55.5H5.0165L7.92349 60.3545H7.39149L10.251 55.5H11.2675L11.277 62.15H10.1085L10.099 57.3335H10.346L7.91399 61.39H7.36299L4.893 57.3335H5.178V62.15H4Z" fill="#54BD95"/>
</svg>
