<svg width="28" height="28" viewBox="0 0 28 28" fill="none" xmlns="http://www.w3.org/2000/svg">
<path d="M19.3348 3.75781C20.8654 3.75781 22.3378 4.36276 23.4211 5.44825C24.5054 6.53145 25.1115 7.99246 25.1115 9.52195V18.5391C25.1115 21.7237 22.5205 24.3033 19.3348 24.3033H8.05876C4.87307 24.3033 2.2832 21.7237 2.2832 18.5391V9.52195C2.2832 6.33741 4.86166 3.75781 8.05876 3.75781H19.3348ZM20.6257 9.69317C20.386 9.68061 20.1577 9.76165 19.9854 9.92145L14.8388 14.0305C14.1767 14.5796 13.2282 14.5796 12.5559 14.0305L7.41957 9.92145C7.06459 9.65892 6.57378 9.69317 6.27815 10.0013C5.96997 10.3095 5.93573 10.8003 6.19711 11.1428L6.34664 11.2911L11.5401 15.3432C12.1793 15.8454 12.9543 16.1193 13.7658 16.1193C14.5751 16.1193 15.3638 15.8454 16.0019 15.3432L21.1508 11.2227L21.2421 11.1313C21.5149 10.8003 21.5149 10.3209 21.2295 9.98993C21.0709 9.81986 20.8529 9.71599 20.6257 9.69317Z" fill="#54BD95"/>
</svg>
