<svg width="46" height="47" viewBox="0 0 46 47" fill="none" xmlns="http://www.w3.org/2000/svg">
<path d="M32.7968 17.1172C35.7328 19.2235 39.3295 20.4627 43.2142 20.4627V12.9608C42.479 12.961 41.7457 12.8841 41.0265 12.7311V18.6362C37.1421 18.6362 33.5458 17.3969 30.6091 15.2908V30.6C30.6091 38.2584 24.4228 44.4663 16.792 44.4663C13.9448 44.4663 11.2984 43.6025 9.1001 42.121C11.6091 44.6956 15.1082 46.2927 18.9793 46.2927C26.6105 46.2927 32.7971 40.0848 32.7971 32.4261V17.1172H32.7968ZM35.4956 9.54874C33.9951 7.90365 33.01 5.77767 32.7968 3.4273V2.4624H30.7236C31.2455 5.44971 33.0254 8.00189 35.4956 9.54874ZM13.9265 36.2442C13.0882 35.1411 12.6352 33.7916 12.6372 32.4041C12.6372 28.9015 15.4668 26.0614 18.9577 26.0614C19.6083 26.0613 20.255 26.1613 20.875 26.3587V18.6891C20.1505 18.5895 19.4192 18.5472 18.6882 18.5627V24.5323C18.0678 24.3349 17.4208 24.2346 16.77 24.2352C13.2791 24.2352 10.4497 27.0749 10.4497 30.5781C10.4497 33.055 11.864 35.1995 13.9265 36.2442Z" fill="#FF004F"/>
<path d="M30.6091 15.2907C33.5459 17.3968 37.1422 18.636 41.0265 18.636V12.731C38.8583 12.2675 36.9388 11.1304 35.4956 9.54874C33.0253 8.00174 31.2455 5.44956 30.7236 2.4624H25.278V32.4258C25.2656 35.9189 22.4409 38.7473 18.9575 38.7473C16.9047 38.7473 15.0811 37.7653 13.9261 36.2442C11.8637 35.1995 10.4494 33.0549 10.4494 30.5782C10.4494 27.0754 13.2788 24.2354 16.7697 24.2354C17.4386 24.2354 18.0832 24.3399 18.688 24.5325V18.5629C11.1913 18.7183 5.16211 24.8656 5.16211 32.4259C5.16211 36.2 6.66351 39.6213 9.1003 42.1212C11.2986 43.6025 13.945 44.4665 16.7922 44.4665C24.4231 44.4665 30.6093 38.2583 30.6093 30.6V15.2907H30.6091Z" fill="black"/>
<path d="M41.0266 12.731V11.1344C39.0714 11.1373 37.1546 10.5878 35.4957 9.54865C36.9642 11.1621 38.8978 12.2746 41.0266 12.731ZM30.7237 2.46246C30.6739 2.17697 30.6357 1.8896 30.6092 1.60113V0.63623H23.0902V30.5999C23.0781 34.0925 20.2536 36.921 16.7698 36.921C15.747 36.921 14.7814 36.6773 13.9262 36.2444C15.0811 37.7654 16.9048 38.7472 18.9575 38.7472C22.4407 38.7472 25.2659 35.9191 25.278 32.426V2.46246H30.7237ZM18.6883 18.5629V16.8631C18.0601 16.777 17.4266 16.7337 16.7924 16.734C9.16091 16.7339 2.97461 22.9421 2.97461 30.5999C2.97461 35.4009 5.40594 39.632 9.10052 42.1209C6.66373 39.6212 5.16233 36.1997 5.16233 32.4258C5.16233 24.8656 11.1913 18.7183 18.6883 18.5629Z" fill="#00F2EA"/>
</svg>
