<svg width="56" height="55" viewBox="0 0 56 55" fill="none" xmlns="http://www.w3.org/2000/svg">
<g clip-path="url(#clip0_127_74257)">
<path d="M54.2014 14.1912C53.8917 13.0256 53.2812 11.9619 52.4311 11.1063C51.5811 10.2508 50.5212 9.63355 49.3577 9.31634C45.0742 8.16455 27.953 8.16455 27.953 8.16455C27.953 8.16455 10.8318 8.16455 6.54839 9.31634C5.38482 9.63355 4.32497 10.2508 3.47491 11.1063C2.62485 11.9619 2.0144 13.0256 1.70465 14.1912C0.559082 18.4933 0.559082 27.4648 0.559082 27.4648C0.559082 27.4648 0.559082 36.4363 1.70465 40.7384C2.0144 41.904 2.62485 42.9678 3.47491 43.8233C4.32497 44.6788 5.38482 45.2961 6.54839 45.6133C10.8318 46.7651 27.953 46.7651 27.953 46.7651C27.953 46.7651 45.0742 46.7651 49.3577 45.6133C50.5212 45.2961 51.5811 44.6788 52.4311 43.8233C53.2812 42.9678 53.8917 41.904 54.2014 40.7384C55.347 36.4363 55.347 27.4648 55.347 27.4648C55.347 27.4648 55.347 18.4933 54.2014 14.1912Z" fill="#FF0302"/>
<path d="M22.3501 35.6115V19.3184L36.6696 27.4649L22.3501 35.6115Z" fill="#FEFEFE"/>
</g>
<defs>
<clipPath id="clip0_127_74257">
<rect width="54.7879" height="54.7879" fill="white" transform="translate(0.504883 0.0708008)"/>
</clipPath>
</defs>
</svg>
